<svg xmlns="http://www.w3.org/2000/svg" width="512" height="512" enable-background="new 0 0 512 512" viewBox="0 0 512 512" id="pickaxe">
  <linearGradient id="a" x1="68.055" x2="463.365" y1="480.733" y2="85.422" gradientUnits="userSpaceOnUse">
    <stop offset="0" stop-color="#6acad8"></stop>
    <stop offset="1" stop-color="#ae6bac"></stop>
  </linearGradient>
  <path fill="url(#a)" d="M91.698,409.318c3.163,3.834,2.619,9.507-1.216,12.669l-7.802,6.436
	c-1.677,1.384-3.706,2.058-5.722,2.058c-2.594,0-5.168-1.115-6.948-3.273c-3.163-3.834-2.619-9.507,1.216-12.669l7.802-6.436
	C82.862,404.938,88.535,405.483,91.698,409.318z M495,274.891c0,14.024-11.41,25.434-25.434,25.434s-25.434-11.409-25.434-25.434
	c0-38.328-8.726-72.456-24.368-100.394L227.777,332.874c1.437,6.754,1.072,13.663-2.084,20.396
	c-8.276,17.654-19.059,21.026-31.544,24.931c-10.063,3.147-22.586,7.063-40.449,20.142c-17.066,12.495-25.759,25.813-33.428,37.563
	c-9.927,15.209-19.303,29.574-42.27,31.345c-1.171,0.09-2.355,0.136-3.519,0.136c-37.542,0-56.081-45.769-56.852-47.717
	c-1.436-3.629-0.369-7.77,2.642-10.253l155.41-128.202c3.155-2.604,7.668-2.751,10.989-0.359c1.235,0.89,4.571,3.356,8.854,7.002
	l189.368-156.215c-26.987-23.061-61.867-36.16-101.825-36.16c-14.024,0-25.434-11.409-25.434-25.434s11.41-25.434,25.434-25.434
	c31.157,0,60.476,6.014,87.14,17.874c20.204,8.988,38.484,21.157,54.561,36.259l10.621-8.761c5.226-4.312,11.836-6.328,18.611-5.679
	c6.775,0.65,12.881,3.887,17.192,9.112l2.789,3.382c8.924,10.817,7.383,26.879-3.435,35.804l-10.989,9.065
	C482.591,179.356,495,225.454,495,274.891z M446.846,103.87l-9.472,7.813c0.116,0.13,0.235,0.255,0.35,0.385
	c4.13,4.663,8.04,9.537,11.749,14.588l9.622-7.937c3.162-2.608,3.612-7.304,1.004-10.465l-2.789-3.382
	c-1.251-1.517-3.037-2.458-5.026-2.648C450.294,102.037,448.363,102.618,446.846,103.87z M181.595,299.671L37.126,418.848
	c5.366,10.261,18.374,30.538,37.356,30.538c0.704,0,1.423-0.027,2.135-0.083c13.554-1.045,18.556-7.878,28.58-23.235
	c8.088-12.393,18.155-27.815,37.868-42.249c20.273-14.843,34.975-19.44,45.71-22.798c11.429-3.574,15.706-4.911,20.619-15.392
	C215.502,332.6,195.837,311.376,181.595,299.671z M410.051,159.177c-3.767-5.271-7.815-10.259-12.128-14.949l-189.29,156.151
	c4.226,4.571,8.382,9.721,11.8,15.22L410.051,159.177z M477,274.891c0-58.895-18.734-112.48-52.75-150.889
	c-17.235-19.46-37.878-34.623-61.356-45.067c-24.347-10.829-51.204-16.32-79.824-16.32c-4.099,0-7.434,3.335-7.434,7.434
	s3.334,7.434,7.434,7.434c51.007,0,96.914,19.736,129.262,55.574c32.115,35.58,49.802,85.951,49.802,141.835
	c0,4.099,3.334,7.434,7.434,7.434S477,278.989,477,274.891z"></path>
</svg>
